<svg width="272" height="184" viewBox="0 0 272 184" fill="none" xmlns="http://www.w3.org/2000/svg">
<mask id="mask0_2287_142" style="mask-type:alpha" maskUnits="userSpaceOnUse" x="158" y="0" width="114" height="184">
<rect x="158" width="114" height="184" fill="#D9D9D9"/>
</mask>
<g mask="url(#mask0_2287_142)">
<path d="M127 184V156.027H216.904C224.147 156.027 230.796 152.454 236.849 145.309C242.803 138.337 247.169 129.187 249.948 117.859C252.031 109.841 253.073 101.389 253.073 92.5C253.073 86.5743 252.627 80.91 251.734 75.5071C249.551 61.9129 245.234 50.7586 238.784 42.0443C232.334 33.33 225.041 28.9729 216.904 28.9729H154.537C150.567 28.9729 152.207 28.9729 145.345 28.9729L142.927 32.5759L142.927 34.7243V78.3829H205.74C209.61 78.3829 213.282 76.7271 216.755 73.4157L230.3 59.56V66.6186L218.392 78.3829L195.916 101.389C192.542 104.874 188.871 106.617 184.901 106.617H127V1H142.927V27.9272L164.212 6.22858C167.685 2.74286 171.356 1 175.226 1H216.904C229.605 1 240.769 8.14574 250.394 22.4372C260.02 36.9029 265.924 54.8543 268.107 76.2914C268.702 81.6943 269 87.0971 269 92.5C269 109.057 266.668 124.307 262.004 138.25C257.34 152.367 251.039 163.521 243.101 171.713C235.063 179.904 226.331 184 216.904 184H127Z" fill="#F5F5F5"/>
</g>
<path d="M143 1V28.9729H52.4633C45.1684 28.9729 38.4731 32.5457 32.3774 39.6914C26.3815 46.6629 21.9846 55.8129 19.1866 67.1414C17.088 75.1586 16.0388 83.6114 16.0388 92.5C16.0388 98.4257 16.4885 104.09 17.3878 109.493C19.5863 123.087 23.9333 134.241 30.4287 142.956C36.9242 151.67 44.269 156.027 52.4633 156.027H115.269C119.267 156.027 122.964 154.284 126.362 150.799L126.961 150.276V106.617H63.7054C59.8082 106.617 56.1108 108.273 52.6132 111.584L38.9727 125.44V118.381L50.9644 106.617L73.5985 83.6114C76.9962 80.1257 80.6936 78.3829 84.6908 78.3829H143V184H126.961V157.073L105.526 178.771C102.029 182.257 98.3312 184 94.434 184H52.4633C39.6723 184 28.4301 176.854 18.7369 162.563C9.04368 148.097 3.09783 130.146 0.899371 108.709C0.29979 103.306 0 97.9029 0 92.5C0 75.9429 2.34836 60.6929 7.04507 46.75C11.7418 32.6329 18.0874 21.4786 26.0818 13.2871C34.1761 5.09571 42.9699 1 52.4633 1H143Z" fill="#F5F5F5"/>
<path d="M127 63V44H143V63H127Z" fill="#F5F5F5"/>
</svg>
